Exo-BlackItalic.ufo
<glyph name="j" format="1">
  <advance width="280.0"/>
  <unicode hex="006A"/>
  <note>
    GF Latin Plus glyph
  </note>
  <outline>
    <contour>
      <point x="142" y="630" type="line" smooth="yes"/>
      <point x="139" y="616"/>
      <point x="148" y="607"/>
      <point x="162" y="607" type="curve" smooth="yes"/>
      <point x="314" y="607" type="line" smooth="yes"/>
      <point x="328" y="607"/>
      <point x="337" y="615"/>
      <point x="340" y="630" type="curve" smooth="yes"/>
      <point x="357" y="741" type="line" smooth="yes"/>
      <point x="359" y="755"/>
      <point x="354" y="766"/>
      <point x="339" y="766" type="curve" smooth="yes"/>
      <point x="187" y="766" type="line" smooth="yes"/>
      <point x="171" y="766"/>
      <point x="162" y="756"/>
      <point x="159" y="741" type="curve" smooth="yes"/>
    </contour>
    <component base="jdotless" xOffset="-1"/>
  </outline>
</glyph>
<glyph name="thorn" format="1">
  <advance width="581.0"/>
  <unicode hex="00FE"/>
  <note>
    GF Latin Plus glyph
  </note>
  <outline>
    <contour>
      <point x="5" y="-237" type="line"/>
      <point x="200" y="-237" type="line"/>
      <point x="239" y="9" type="line"/>
      <point x="256.134542068" y="-1.0791423932"/>
      <point x="295.595744681" y="-6.0"/>
      <point x="334" y="-6" type="curve" smooth="yes"/>
      <point x="451.529880478" y="-6.0"/>
      <point x="556.002810313" y="64.0174640892"/>
      <point x="584" y="238" type="curve" smooth="yes"/>
      <point x="590" y="278"/>
      <point x="594" y="315"/>
      <point x="594" y="348" type="curve" smooth="yes"/>
      <point x="594.0" y="477.0"/>
      <point x="549.247252747" y="545.0"/>
      <point x="413" y="545" type="curve" smooth="yes"/>
      <point x="382.659090909" y="545.0"/>
      <point x="352.314590735" y="544.03370615"/>
      <point x="324" y="541" type="curve"/>
      <point x="359" y="763" type="line"/>
      <point x="164" y="763" type="line"/>
    </contour>
    <contour>
      <point x="263" y="165" type="curve"/>
      <point x="299" y="390" type="line"/>
      <point x="355" y="390" type="line" smooth="yes"/>
      <point x="389.56" y="390"/>
      <point x="403.0" y="365.0"/>
      <point x="403" y="313" type="curve" smooth="yes"/>
      <point x="403" y="301"/>
      <point x="401" y="288"/>
      <point x="399" y="274" type="curve" smooth="yes"/>
      <point x="384.004479604" y="185.026578986"/>
      <point x="353.5" y="158.0"/>
      <point x="308" y="158" type="curve" smooth="yes"/>
      <point x="288" y="158"/>
      <point x="271" y="161"/>
    </contour>
  </outline>
</glyph>
<glyph name="eng" format="1">
  <advance width="600.0"/>
  <unicode hex="014B"/>
  <note>
    GF Latin Plus glyph
  </note>
  <outline>
    <contour>
      <point x="264" y="-237" type="curve"/>
      <point x="418" y="-237" type="line"/>
      <point x="476" y="-208"/>
      <point x="535" y="-145"/>
      <point x="551" y="-45" type="curve" smooth="yes"/>
      <point x="558" y="0" type="line"/>
      <point x="364" y="0" type="line"/>
      <point x="356" y="-50" type="line" smooth="yes"/>
      <point x="338" y="-159"/>
      <point x="292" y="-209"/>
    </contour>
    <component base="n"/>
  </outline>
</glyph>
<glyph name="oe" format="1">
  <advance width="869.8865456279723"/>
  <unicode hex="0153"/>
  <note>
    GF Latin Plus glyph
  </note>
  <outline>
    <contour>
      <point x="840" y="22" type="curve"/>
      <point x="858" y="135" type="line"/>
      <point x="679" y="135" type="line" smooth="yes"/>
      <point x="614" y="135"/>
      <point x="580" y="148"/>
      <point x="580" y="178" type="curve" smooth="yes"/>
      <point x="580" y="184"/>
      <point x="581.0883328885794" y="192.52999733147627"/>
      <point x="582" y="198" type="curve"/>
      <point x="604" y="193"/>
      <point x="638" y="190"/>
      <point x="678" y="190" type="curve" smooth="yes"/>
      <point x="801.5565610859728" y="190.0"/>
      <point x="900.0" y="220.27906976744185"/>
      <point x="900" y="376" type="curve" smooth="yes"/>
      <point x="900.0" y="516.0"/>
      <point x="792.2803738317757" y="545.0"/>
      <point x="696" y="545" type="curve" smooth="yes"/>
      <point x="628.1212121212121" y="545.0"/>
      <point x="576" y="522"/>
      <point x="528" y="477" type="curve"/>
      <point x="485" y="524"/>
      <point x="428" y="545"/>
      <point x="365" y="545" type="curve" smooth="yes"/>
      <point x="191" y="545"/>
      <point x="109.97319840741167" y="505.8289427767156"/>
      <point x="76" y="289" type="curve" smooth="yes"/>
      <point x="71" y="258"/>
      <point x="68" y="226"/>
      <point x="68" y="185" type="curve" smooth="yes"/>
      <point x="68.0" y="64.00000000000001"/>
      <point x="134.83257918552036" y="-6.0"/>
      <point x="279" y="-6" type="curve" smooth="yes"/>
      <point x="358.43502824858757" y="-6.0"/>
      <point x="416" y="16"/>
      <point x="469" y="45" type="curve"/>
      <point x="506" y="13"/>
      <point x="549" y="-6"/>
      <point x="634" y="-6" type="curve" smooth="yes"/>
      <point x="701" y="-6"/>
      <point x="782.34994005411" y="7.587485013527511"/>
    </contour>
    <contour>
      <point x="594" y="299" type="curve"/>
      <point x="606" y="364"/>
      <point x="629" y="398"/>
      <point x="673" y="398" type="curve" smooth="yes"/>
      <point x="705" y="398"/>
      <point x="720" y="381"/>
      <point x="720" y="355" type="curve" smooth="yes"/>
      <point x="720" y="318"/>
      <point x="707" y="295"/>
      <point x="633" y="295" type="curve" smooth="yes"/>
      <point x="621" y="295"/>
      <point x="607" y="297"/>
    </contour>
    <contour>
      <point x="266" y="262" type="curve" smooth="yes"/>
      <point x="281" y="370"/>
      <point x="294" y="394"/>
      <point x="350" y="394" type="curve" smooth="yes"/>
      <point x="387" y="394"/>
      <point x="402" y="385"/>
      <point x="402" y="353" type="curve" smooth="yes"/>
      <point x="402" y="328"/>
      <point x="398" y="300"/>
      <point x="393" y="262" type="curve" smooth="yes"/>
      <point x="378" y="170"/>
      <point x="365" y="149"/>
      <point x="309" y="149" type="curve" smooth="yes"/>
      <point x="273" y="149"/>
      <point x="260" y="160"/>
      <point x="260" y="194" type="curve" smooth="yes"/>
      <point x="260" y="214"/>
      <point x="262" y="235"/>
    </contour>
  </outline>
</glyph>
<glyph name="florin" format="1">
  <advance width="609"/>
  <unicode hex="0192"/>
  <note>
    GF Latin Plus glyph
  </note>
  <outline>
    <contour>
      <point x="-17" y="-179" type="line"/>
      <point x="0" y="-190"/>
      <point x="43" y="-204"/>
      <point x="104" y="-204" type="curve" smooth="yes"/>
      <point x="236" y="-204"/>
      <point x="313" y="-98"/>
      <point x="375" y="88" type="curve" smooth="yes"/>
      <point x="465" y="357" type="line"/>
      <point x="555" y="357" type="line"/>
      <point x="597" y="491" type="line"/>
      <point x="502" y="491" type="line"/>
      <point x="532" y="575" type="line" smooth="yes"/>
      <point x="548" y="620"/>
      <point x="572" y="656"/>
      <point x="631" y="656" type="curve" smooth="yes"/>
      <point x="669" y="656" type="line"/>
      <point x="706" y="775" type="line"/>
      <point x="690" y="784"/>
      <point x="657" y="800"/>
      <point x="583" y="800" type="curve" smooth="yes"/>
      <point x="458" y="800"/>
      <point x="387" y="713"/>
      <point x="358" y="632" type="curve" smooth="yes"/>
      <point x="308" y="491" type="line"/>
      <point x="234" y="491" type="line"/>
      <point x="192" y="357" type="line"/>
      <point x="271" y="357" type="line"/>
      <point x="165" y="37" type="line" smooth="yes"/>
      <point x="142" y="-32"/>
      <point x="114" y="-60"/>
      <point x="60" y="-60" type="curve" smooth="yes"/>
      <point x="20" y="-60" type="line"/>
    </contour>
  </outline>
</glyph>
<glyph name="tilde" format="1">
  <advance width="404"/>
  <unicode hex="02DC"/>
  <note>
    GF Latin Plus glyph
  </note>
  <outline>
    <contour>
      <point x="117" y="625" type="curve"/>
      <point x="213" y="625" type="line"/>
      <point x="218" y="638"/>
      <point x="228" y="656"/>
      <point x="249" y="656" type="curve" smooth="yes"/>
      <point x="276" y="656"/>
      <point x="330" y="627"/>
      <point x="387" y="627" type="curve" smooth="yes"/>
      <point x="452" y="627"/>
      <point x="491" y="666"/>
      <point x="518" y="769" type="curve"/>
      <point x="422" y="769" type="line"/>
      <point x="418" y="747"/>
      <point x="407" y="733"/>
      <point x="387" y="733" type="curve" smooth="yes"/>
      <point x="352" y="733"/>
      <point x="310" y="762"/>
      <point x="250" y="762" type="curve" smooth="yes"/>
      <point x="192" y="762"/>
      <point x="143" y="729"/>
    </contour>
  </outline>
</glyph>
<glyph name="ellipsis" format="1">
  <advance width="816.0"/>
  <unicode hex="2026"/>
  <note>
    GF Latin Plus glyph
  </note>
  <outline>
    <contour>
      <point x="59" y="23" type="line" smooth="yes"/>
      <point x="58" y="22"/>
      <point x="58" y="20"/>
      <point x="58" y="19" type="curve" smooth="yes"/>
      <point x="58" y="7"/>
      <point x="66" y="0"/>
      <point x="79" y="0" type="curve" smooth="yes"/>
      <point x="192" y="0" type="line" smooth="yes"/>
      <point x="206" y="0"/>
      <point x="218" y="5"/>
      <point x="221" y="23" type="curve" smooth="yes"/>
      <point x="239" y="140" type="line" smooth="yes"/>
      <point x="240" y="142"/>
      <point x="240" y="145"/>
      <point x="240" y="147" type="curve" smooth="yes"/>
      <point x="240" y="159"/>
      <point x="233" y="165"/>
      <point x="218" y="165" type="curve" smooth="yes"/>
      <point x="105" y="165" type="line" smooth="yes"/>
      <point x="89" y="165"/>
      <point x="80" y="155"/>
      <point x="77" y="140" type="curve" smooth="yes"/>
    </contour>
    <contour>
      <point x="331" y="23" type="line" smooth="yes"/>
      <point x="330" y="22"/>
      <point x="330" y="20"/>
      <point x="330" y="19" type="curve" smooth="yes"/>
      <point x="330" y="7"/>
      <point x="338" y="0"/>
      <point x="351" y="0" type="curve" smooth="yes"/>
      <point x="464" y="0" type="line" smooth="yes"/>
      <point x="478" y="0"/>
      <point x="490" y="5"/>
      <point x="493" y="23" type="curve" smooth="yes"/>
      <point x="511" y="140" type="line" smooth="yes"/>
      <point x="512" y="142"/>
      <point x="512" y="145"/>
      <point x="512" y="147" type="curve" smooth="yes"/>
      <point x="512" y="159"/>
      <point x="505" y="165"/>
      <point x="490" y="165" type="curve" smooth="yes"/>
      <point x="377" y="165" type="line" smooth="yes"/>
      <point x="361" y="165"/>
      <point x="352" y="155"/>
      <point x="349" y="140" type="curve" smooth="yes"/>
    </contour>
    <contour>
      <point x="603" y="23" type="line" smooth="yes"/>
      <point x="602" y="22"/>
      <point x="602" y="20"/>
      <point x="602" y="19" type="curve" smooth="yes"/>
      <point x="602" y="7"/>
      <point x="610" y="0"/>
      <point x="623" y="0" type="curve" smooth="yes"/>
      <point x="736" y="0" type="line" smooth="yes"/>
      <point x="750" y="0"/>
      <point x="762" y="5"/>
      <point x="765" y="23" type="curve" smooth="yes"/>
      <point x="783" y="140" type="line" smooth="yes"/>
      <point x="784" y="142"/>
      <point x="784" y="145"/>
      <point x="784" y="147" type="curve" smooth="yes"/>
      <point x="784" y="159"/>
      <point x="777" y="165"/>
      <point x="762" y="165" type="curve" smooth="yes"/>
      <point x="649" y="165" type="line" smooth="yes"/>
      <point x="633" y="165"/>
      <point x="624" y="155"/>
      <point x="621" y="140" type="curve" smooth="yes"/>
    </contour>
  </outline>
</glyph>
<glyph name="minute" format="1">
  <advance width="220"/>
  <unicode hex="2032"/>
  <outline>
    <contour>
      <point x="95" y="435" type="line"/>
      <point x="229" y="435" type="line"/>
      <point x="322" y="763" type="line"/>
      <point x="147" y="763" type="line"/>
    </contour>
  </outline>
</glyph>
<glyph name="sevensuperior" format="1">
  <advance width="414"/>
  <unicode hex="2077"/>
  <note>
    GF Latin Plus glyph
  </note>
  <outline>
    <contour>
      <point x="132.0" y="691" type="line"/>
      <point x="300.0" y="691" type="line"/>
      <point x="131.0" y="355" type="line"/>
      <point x="299.0" y="355" type="line"/>
      <point x="511.0" y="783" type="line"/>
      <point x="485.0" y="842" type="line"/>
      <point x="156.0" y="842" type="line"/>
    </contour>
  </outline>
</glyph>
<glyph name="naira" format="1">
  <advance width="609"/>
  <unicode hex="20A6"/>
  <note>
    GF Latin Plus glyph
  </note>
  <outline>
    <contour>
      <point x="75" y="0" type="line"/>
      <point x="229" y="0" type="line"/>
      <point x="288" y="374" type="line"/>
      <point x="410" y="0" type="line"/>
      <point x="534" y="0" type="line"/>
      <point x="652" y="743" type="line"/>
      <point x="498" y="743" type="line"/>
      <point x="438" y="369" type="line"/>
      <point x="317" y="743" type="line"/>
      <point x="193" y="743" type="line"/>
    </contour>
    <contour>
      <point x="104" y="469" type="line"/>
      <point x="221" y="469" type="line"/>
      <point x="236" y="563" type="line"/>
      <point x="119" y="563" type="line"/>
    </contour>
    <contour>
      <point x="331" y="469" type="line"/>
      <point x="653" y="469" type="line"/>
      <point x="668" y="563" type="line"/>
      <point x="296" y="563" type="line"/>
    </contour>
    <contour>
      <point x="59" y="180" type="line"/>
      <point x="460" y="180" type="line"/>
      <point x="415" y="274" type="line"/>
      <point x="73" y="274" type="line"/>
    </contour>
    <contour>
      <point x="521" y="180" type="line"/>
      <point x="608" y="180" type="line"/>
      <point x="622" y="274" type="line"/>
      <point x="535" y="274" type="line"/>
    </contour>
  </outline>
</glyph>
<glyph name="product" format="1">
  <advance width="656"/>
  <unicode hex="220F"/>
  <outline>
    <contour>
      <point x="77" y="0" type="line"/>
      <point x="271" y="0" type="line"/>
      <point x="361" y="569" type="line"/>
      <point x="474" y="569" type="line"/>
      <point x="384" y="0" type="line"/>
      <point x="578" y="0" type="line"/>
      <point x="668" y="569" type="line"/>
      <point x="735" y="569" type="line"/>
      <point x="763" y="743" type="line"/>
      <point x="129" y="743" type="line"/>
      <point x="101" y="569" type="line"/>
      <point x="167" y="569" type="line"/>
    </contour>
  </outline>
</glyph>
<glyph name="Eng.smcp" format="1">
  <advance width="599"/>
  <note>
    GF Latin Plus glyph
  </note>
  <outline>
    <contour>
      <point x="252" y="-170" type="line"/>
      <point x="276" y="-176"/>
      <point x="314" y="-183"/>
      <point x="355" y="-183" type="curve" smooth="yes"/>
      <point x="484" y="-183"/>
      <point x="539" y="-118"/>
      <point x="554" y="-21" type="curve" smooth="yes"/>
      <point x="569" y="76" type="line"/>
      <point x="385" y="71" type="line"/>
      <point x="375" y="7" type="line" smooth="yes"/>
      <point x="372" y="-8"/>
      <point x="366" y="-27"/>
      <point x="342" y="-27" type="curve" smooth="yes"/>
      <point x="348" y="-27"/>
      <point x="270" y="-29"/>
      <point x="275" y="-30" type="curve"/>
    </contour>
    <component base="N.smcp"/>
  </outline>
</glyph>
<glyph name="O.smcp" format="1">
  <advance width="589"/>
  <note>
    GF Latin Plus glyph
  </note>
  <outline>
    <contour>
      <point x="256" y="194" type="curve" smooth="yes"/>
      <point x="256" y="212"/>
      <point x="259" y="249"/>
      <point x="265" y="282" type="curve" smooth="yes"/>
      <point x="280" y="379"/>
      <point x="297" y="409"/>
      <point x="359" y="409" type="curve" smooth="yes"/>
      <point x="406" y="409"/>
      <point x="421" y="396"/>
      <point x="421" y="362" type="curve" smooth="yes"/>
      <point x="421" y="344"/>
      <point x="417" y="306"/>
      <point x="411" y="271" type="curve" smooth="yes"/>
      <point x="401" y="203"/>
      <point x="386" y="152"/>
      <point x="318" y="152" type="curve" smooth="yes"/>
      <point x="271" y="152"/>
      <point x="256" y="164"/>
    </contour>
    <contour>
      <point x="71" y="186" type="curve" smooth="yes"/>
      <point x="71" y="33"/>
      <point x="167" y="-5"/>
      <point x="293" y="-5" type="curve" smooth="yes"/>
      <point x="482" y="-5"/>
      <point x="562" y="43"/>
      <point x="595" y="249" type="curve" smooth="yes"/>
      <point x="601" y="289"/>
      <point x="605" y="334"/>
      <point x="605" y="364" type="curve" smooth="yes"/>
      <point x="605" y="526"/>
      <point x="505" y="565"/>
      <point x="383" y="565" type="curve" smooth="yes"/>
      <point x="196" y="565"/>
      <point x="113" y="500"/>
      <point x="82" y="304" type="curve" smooth="yes"/>
      <point x="75" y="266"/>
      <point x="71" y="220"/>
    </contour>
    <contour>
      <point x="394" y="650" type="move" name="top"/>
    </contour>
    <contour>
      <point x="361" y="0" type="move" name="ogonek"/>
    </contour>
    <contour>
      <point x="274" y="-150" type="move" name="bottom"/>
    </contour>
  </outline>
</glyph>
<glyph name="P.smcp" format="1">
  <advance width="519"/>
  <note>
    GF Latin Plus glyph
  </note>
  <outline>
    <contour>
      <point x="282" y="293" type="line"/>
      <point x="300" y="404" type="line"/>
      <point x="356" y="404" type="line" smooth="yes"/>
      <point x="375" y="404"/>
      <point x="382" y="395"/>
      <point x="383" y="375" type="curve" smooth="yes"/>
      <point x="383" y="364"/>
      <point x="382" y="352"/>
      <point x="379" y="334" type="curve" smooth="yes"/>
      <point x="376" y="315"/>
      <point x="370" y="293"/>
      <point x="342" y="293" type="curve" smooth="yes"/>
    </contour>
    <contour>
      <point x="51" y="0" type="line"/>
      <point x="235" y="0" type="line"/>
      <point x="260" y="156" type="line"/>
      <point x="275" y="147"/>
      <point x="323" y="137"/>
      <point x="371" y="137" type="curve" smooth="yes"/>
      <point x="455" y="137"/>
      <point x="541" y="187"/>
      <point x="559" y="298" type="curve" smooth="yes"/>
      <point x="566" y="339"/>
      <point x="570" y="368"/>
      <point x="570" y="396" type="curve" smooth="yes"/>
      <point x="570" y="528"/>
      <point x="490" y="560"/>
      <point x="391" y="560" type="curve" smooth="yes"/>
      <point x="140" y="560" type="line"/>
    </contour>
    <contour>
      <point x="350" y="650" type="move" name="top"/>
    </contour>
  </outline>
</glyph>
<glyph name="W.salt" format="1">
  <advance width="1051.0"/>
  <outline>
    <contour>
      <point x="123" y="743" type="line"/>
      <point x="195" y="0" type="line"/>
      <point x="447" y="0" type="line"/>
      <point x="569" y="248" type="line"/>
      <point x="614" y="0" type="line"/>
      <point x="866" y="0" type="line"/>
      <point x="1164" y="743" type="line"/>
      <point x="965" y="743" type="line"/>
      <point x="762" y="221" type="line"/>
      <point x="708" y="541" type="line"/>
      <point x="786" y="743" type="line"/>
      <point x="586" y="743" type="line"/>
      <point x="373" y="221" type="line"/>
      <point x="324" y="743" type="line"/>
    </contour>
    <contour>
      <point x="662" y="810" type="move" name="top"/>
    </contour>
  </outline>
</glyph>
<glyph name="caroncomb.case" format="1">
  <advance width="0"/>
  <note>
    GF Latin Plus glyph
  </note>
  <outline>
    <component base="caroncomb" xOffset="30" yOffset="200"/>
    <contour>
      <point x="-239" y="850" type="move" name="_top"/>
    </contour>
  </outline>
</glyph>
<glyph name="colonsign.smcp" format="1">
  <advance width="509"/>
  <note>
    GF Latin Plus glyph
  </note>
  <outline>
    <contour>
      <point x="302" y="-83" type="line"/>
      <point x="627" y="596" type="line"/>
      <point x="550" y="596" type="line"/>
      <point x="225" y="-83" type="line"/>
    </contour>
    <contour>
      <point x="190" y="-83" type="line"/>
      <point x="516" y="596" type="line"/>
      <point x="439" y="596" type="line"/>
      <point x="113" y="-83" type="line"/>
    </contour>
    <contour>
      <point x="231" y="563"/>
      <point x="78" y="440"/>
      <point x="81" y="186" type="curve" smooth="yes"/>
      <point x="82" y="46"/>
      <point x="164" y="-5"/>
      <point x="277" y="-5" type="curve" smooth="yes"/>
      <point x="361" y="-5"/>
      <point x="415" y="5"/>
      <point x="457" y="20" type="curve"/>
      <point x="484" y="137" type="line"/>
      <point x="462" y="135"/>
      <point x="415" y="133"/>
      <point x="346" y="133" type="curve" smooth="yes"/>
      <point x="292" y="133"/>
      <point x="245" y="145"/>
      <point x="244" y="232" type="curve" smooth="yes"/>
      <point x="243" y="325"/>
      <point x="294" y="426"/>
      <point x="407" y="426" type="curve" smooth="yes"/>
      <point x="441" y="426"/>
      <point x="470" y="426"/>
      <point x="493" y="424" type="curve"/>
      <point x="576" y="533" type="line"/>
      <point x="548" y="545"/>
      <point x="491" y="563"/>
      <point x="391" y="563" type="curve" smooth="yes"/>
    </contour>
  </outline>
</glyph>
<glyph name="five.oldstyle" format="1">
  <advance width="609"/>
  <outline>
    <contour>
      <point x="40" y="-190" type="line"/>
      <point x="117" y="-198"/>
      <point x="203" y="-210"/>
      <point x="272" y="-210" type="curve" smooth="yes"/>
      <point x="449" y="-210"/>
      <point x="542" y="-155"/>
      <point x="564" y="-18" type="curve" smooth="yes"/>
      <point x="581" y="91" type="line" smooth="yes"/>
      <point x="584" y="105"/>
      <point x="585" y="119"/>
      <point x="585" y="132" type="curve" smooth="yes"/>
      <point x="585" y="213"/>
      <point x="542" y="272"/>
      <point x="442" y="272" type="curve" smooth="yes"/>
      <point x="386" y="272" type="line" smooth="yes"/>
      <point x="354" y="272"/>
      <point x="320" y="269"/>
      <point x="294" y="252" type="curve"/>
      <point x="317" y="365" type="line"/>
      <point x="594" y="365" type="line"/>
      <point x="621" y="539" type="line"/>
      <point x="178" y="539" type="line"/>
      <point x="84" y="73" type="line"/>
      <point x="268" y="73" type="line"/>
      <point x="274" y="96"/>
      <point x="288" y="108"/>
      <point x="320" y="108" type="curve" smooth="yes"/>
      <point x="344" y="108" type="line" smooth="yes"/>
      <point x="373" y="108"/>
      <point x="383" y="95"/>
      <point x="383" y="72" type="curve" smooth="yes"/>
      <point x="383" y="67"/>
      <point x="383" y="61"/>
      <point x="382" y="55" type="curve" smooth="yes"/>
      <point x="377" y="24" type="line" smooth="yes"/>
      <point x="373" y="3"/>
      <point x="370" y="-36"/>
      <point x="308" y="-36" type="curve" smooth="yes"/>
      <point x="64" y="-36" type="line"/>
    </contour>
  </outline>
</glyph>
<glyph name="hookabovecomb" format="1">
  <advance width="0"/>
  <note>
    GF Latin Plus glyph
  </note>
  <outline>
    <contour>
      <point x="-257" y="710" type="line"/>
      <point x="-246" y="713"/>
      <point x="-235" y="716"/>
      <point x="-226" y="716" type="curve" smooth="yes"/>
      <point x="-210" y="716"/>
      <point x="-204" y="711"/>
      <point x="-204" y="703" type="curve" smooth="yes"/>
      <point x="-204" y="693"/>
      <point x="-208" y="680"/>
      <point x="-238" y="672" type="curve"/>
      <point x="-251" y="588" type="line"/>
      <point x="-140" y="618"/>
      <point x="-101" y="666"/>
      <point x="-101" y="720" type="curve" smooth="yes"/>
      <point x="-101" y="769"/>
      <point x="-129" y="793"/>
      <point x="-187" y="793" type="curve" smooth="yes"/>
      <point x="-209" y="793"/>
      <point x="-229" y="789"/>
      <point x="-245" y="784" type="curve"/>
    </contour>
    <contour>
      <point x="-207.0" y="650.0" type="move" name="_top"/>
    </contour>
  </outline>
</glyph>
<glyph name="j.superior" format="1">
  <advance width="216"/>
  <note>
    GF Latin Plus glyph
  </note>
  <outline>
    <contour>
      <point x="144.0" y="733" type="line" smooth="yes"/>
      <point x="141.0" y="722"/>
      <point x="148.0" y="715"/>
      <point x="159.0" y="715" type="curve" smooth="yes"/>
      <point x="286.0" y="715" type="line" smooth="yes"/>
      <point x="297.0" y="715"/>
      <point x="304.0" y="721"/>
      <point x="306.0" y="733" type="curve" smooth="yes"/>
      <point x="320.0" y="821" type="line" smooth="yes"/>
      <point x="321.0" y="832"/>
      <point x="317.0" y="841"/>
      <point x="305.0" y="841" type="curve" smooth="yes"/>
      <point x="179.0" y="841" type="line" smooth="yes"/>
      <point x="167.0" y="841"/>
      <point x="160.0" y="833"/>
      <point x="157.0" y="821" type="curve" smooth="yes"/>
    </contour>
    <contour>
      <point x="295" y="672" type="line"/>
      <point x="135" y="672" type="line"/>
      <point x="48" y="120" type="line"/>
      <point x="160" y="120" type="line"/>
      <point x="198" y="175"/>
      <point x="226" y="232"/>
      <point x="243" y="340" type="curve" smooth="yes"/>
    </contour>
  </outline>
</glyph>
<glyph name="p.salt" format="1">
  <advance width="580.0"/>
  <outline>
    <contour>
      <point x="263" y="166" type="curve"/>
      <point x="299" y="390" type="line"/>
      <point x="351" y="390" type="line" smooth="yes"/>
      <point x="385.6666666666667" y="390"/>
      <point x="403" y="377"/>
      <point x="403" y="316" type="curve" smooth="yes"/>
      <point x="403" y="221"/>
      <point x="364" y="158"/>
      <point x="311" y="158" type="curve" smooth="yes"/>
      <point x="294" y="158"/>
      <point x="272.0219182471017" y="159.43860491119872"/>
    </contour>
    <contour>
      <point x="6" y="-237" type="line"/>
      <point x="200" y="-237" type="line"/>
      <point x="239" y="9" type="line"/>
      <point x="263" y="-2"/>
      <point x="296.9661016949152" y="-6.0"/>
      <point x="329" y="-6" type="curve" smooth="yes"/>
      <point x="535.3617021276596" y="-6.0"/>
      <point x="594.0" y="209.78089887640448"/>
      <point x="594" y="348" type="curve" smooth="yes"/>
      <point x="594.0" y="491.0"/>
      <point x="542.219387755102" y="548.0"/>
      <point x="395" y="548" type="curve" smooth="yes"/>
      <point x="295.08992805755395" y="548.0"/>
      <point x="209.21695434014043" y="526.617177677402"/>
      <point x="120" y="483" type="curve"/>
    </contour>
    <contour>
      <point x="393" y="650" type="move" name="top"/>
    </contour>
  </outline>
</glyph>
<glyph name="rupeeIndian.smcp" format="1">
  <advance width="509"/>
  <note>
    GF Latin Plus glyph
  </note>
  <outline>
    <contour>
      <point x="272" y="478" type="line"/>
      <point x="549" y="478" type="line"/>
      <point x="562" y="560" type="line"/>
      <point x="285" y="560" type="line"/>
    </contour>
    <contour>
      <point x="97" y="303" type="line"/>
      <point x="521" y="303" type="line"/>
      <point x="534" y="386" type="line"/>
      <point x="110" y="386" type="line"/>
    </contour>
    <contour>
      <point x="115" y="414" type="line"/>
      <point x="229" y="414" type="line" smooth="yes"/>
      <point x="252.4848484848485" y="414"/>
      <point x="260.0" y="397.23809523809524"/>
      <point x="260" y="370" type="curve" smooth="yes"/>
      <point x="260.9800033203036" y="293.5597410163192"/>
      <point x="231.875" y="272"/>
      <point x="210" y="272" type="curve" smooth="yes"/>
      <point x="92" y="272" type="line"/>
      <point x="70" y="135" type="line"/>
      <point x="101" y="135"/>
      <point x="135" y="135"/>
      <point x="158" y="136" type="curve"/>
      <point x="214" y="0" type="line"/>
      <point x="414" y="0" type="line"/>
      <point x="345" y="156" type="line"/>
      <point x="398" y="188"/>
      <point x="448" y="276"/>
      <point x="447" y="397" type="curve" smooth="yes"/>
      <point x="446" y="520"/>
      <point x="365" y="560"/>
      <point x="290" y="560" type="curve" smooth="yes"/>
      <point x="138" y="560" type="line"/>
    </contour>
  </outline>
</glyph>
<glyph name="won.smcp" format="1">
  <advance width="509"/>
  <note>
    GF Latin Plus glyph
  </note>
  <outline>
    <contour>
      <point x="115" y="560" type="line"/>
      <point x="60" y="0" type="line"/>
      <point x="222" y="0" type="line"/>
      <point x="277" y="202" type="line"/>
      <point x="290" y="0" type="line"/>
      <point x="451" y="0" type="line"/>
      <point x="567" y="560" type="line"/>
      <point x="408" y="560" type="line"/>
      <point x="362" y="317" type="line"/>
      <point x="360" y="453" type="line"/>
      <point x="290" y="453" type="line"/>
      <point x="247" y="317" type="line"/>
      <point x="276" y="560" type="line"/>
    </contour>
    <contour>
      <point x="62" y="353" type="line"/>
      <point x="158" y="353" type="line"/>
      <point x="171" y="435" type="line"/>
      <point x="75" y="435" type="line"/>
    </contour>
    <contour>
      <point x="484" y="353" type="line"/>
      <point x="560" y="353" type="line"/>
      <point x="573" y="435" type="line"/>
      <point x="487" y="435" type="line"/>
    </contour>
    <contour>
      <point x="26" y="123" type="line"/>
      <point x="179" y="123" type="line"/>
      <point x="164" y="205" type="line"/>
      <point x="38" y="205" type="line"/>
    </contour>
    <contour>
      <point x="393" y="123" type="line"/>
      <point x="525" y="123" type="line"/>
      <point x="537" y="205" type="line"/>
      <point x="405" y="205" type="line"/>
    </contour>
  </outline>
</glyph>
<glyph name="zero.tosf" format="1">
  <advance width="609"/>
  <outline>
    <contour>
      <point x="274" y="226" type="curve" smooth="yes"/>
      <point x="287" y="312" type="line" smooth="yes"/>
      <point x="295" y="358"/>
      <point x="318" y="370"/>
      <point x="345" y="370" type="curve" smooth="yes"/>
      <point x="382" y="370" type="line" smooth="yes"/>
      <point x="405" y="370"/>
      <point x="422" y="361"/>
      <point x="422" y="330" type="curve" smooth="yes"/>
      <point x="422" y="325"/>
      <point x="421" y="319"/>
      <point x="420" y="312" type="curve" smooth="yes"/>
      <point x="407" y="226" type="line" smooth="yes"/>
      <point x="400" y="180"/>
      <point x="377" y="168"/>
      <point x="350" y="168" type="curve" smooth="yes"/>
      <point x="313" y="168" type="line" smooth="yes"/>
      <point x="290" y="168"/>
      <point x="272" y="177"/>
      <point x="272" y="208" type="curve" smooth="yes"/>
      <point x="272" y="213"/>
      <point x="273" y="219"/>
    </contour>
    <contour>
      <point x="73" y="186" type="line" smooth="yes"/>
      <point x="71" y="169"/>
      <point x="69" y="152"/>
      <point x="69" y="136" type="curve" smooth="yes"/>
      <point x="69" y="55"/>
      <point x="108" y="-6"/>
      <point x="229" y="-6" type="curve" smooth="yes"/>
      <point x="378" y="-6" type="line" smooth="yes"/>
      <point x="523" y="-6"/>
      <point x="578" y="82"/>
      <point x="594" y="186" type="curve" smooth="yes"/>
      <point x="621" y="352" type="line" smooth="yes"/>
      <point x="623" y="369"/>
      <point x="625" y="386"/>
      <point x="625" y="402" type="curve" smooth="yes"/>
      <point x="625" y="483"/>
      <point x="586" y="544"/>
      <point x="465" y="544" type="curve" smooth="yes"/>
      <point x="316" y="544" type="line" smooth="yes"/>
      <point x="171" y="544"/>
      <point x="116" y="456"/>
      <point x="100" y="352" type="curve" smooth="yes"/>
    </contour>
  </outline>
</glyph>
